<?xml version="1.0" encoding="UTF-8" standalone="no"?>
<!DOCTYPE svg PUBLIC "-//W3C//DTD SVG 1.1//EN" "http://www.w3.org/Graphics/SVG/1.1/DTD/svg11.dtd">
<svg width="100%" height="100%" viewBox="0 0 822 269" version="1.1" xmlns="http://www.w3.org/2000/svg" xmlns:xlink="http://www.w3.org/1999/xlink" xml:space="preserve" xmlns:serif="http://www.serif.com/" style="fill-rule:evenodd;clip-rule:evenodd;stroke-miterlimit:1.5;">
    <g transform="matrix(1,0,0,1,-64.4653,-261.365)">
        <g id="version-3" serif:id="version 3" transform="matrix(1,0,0,1,0,143.9)">
            <g id="U-image" serif:id="U image" transform="matrix(1,0,0,1,0,79)">
                <g transform="matrix(0.90622,0,0,1,624.19,-100)">
                    <path d="M98,161L98,384L263.523,384L263.523,161.32" style="fill:none;stroke:rgb(204,204,204);stroke-width:26.2px;"/>
                </g>
                <g transform="matrix(0.909914,0,0,1,414.828,-100)">
                    <path d="M98,161L98,384L262.851,384L262.851,161.32" style="fill:none;stroke:rgb(204,204,204);stroke-width:26.15px;"/>
                </g>
                <g transform="matrix(0.909502,0,0,1,206.869,-100)">
                    <path d="M98,161L98,384L262.925,384L262.925,161.32" style="fill:none;stroke:rgb(204,204,204);stroke-width:26.16px;"/>
                </g>
                <g transform="matrix(0.909091,0,0,1,-2.09091,-100)">
                    <path d="M98,161L98,384L263,384L263,161.32" style="fill:none;stroke:rgb(204,204,204);stroke-width:26.16px;"/>
                </g>
                <g transform="matrix(1.02976e-16,1.68173,-6.24282,3.82262e-16,1518.3,-298.539)">
                    <rect x="213.197" y="102.886" width="102.276" height="128.474" style="fill:url(#_Linear1);"/>
                </g>
            </g>
            <g id="Sub-Heading" serif:id="Sub Heading" transform="matrix(1,0,0,1,-6.66585,-19)">
                <path d="M187.512,316.979L187.512,327.779L182.472,327.779L182.472,302.579L187.512,302.579L187.512,312.659L197.412,312.659L197.412,302.579L202.452,302.579L202.452,327.779L197.412,327.779L197.412,316.979L187.512,316.979Z" style="fill:rgb(64,64,64);fill-rule:nonzero;"/>
                <path d="M224.232,325.547L220.056,327.959L212.388,327.959L208.212,325.547L208.212,312.011L212.388,309.599L220.056,309.599L224.232,312.011L224.232,325.547ZM213.144,313.811L213.144,323.747L219.3,323.747L219.3,313.811L213.144,313.811Z" style="fill:rgb(64,64,64);fill-rule:nonzero;"/>
                <path d="M254.94,312.011L254.94,327.779L250.008,327.779L250.008,313.811L244.752,313.811L244.752,327.779L239.82,327.779L239.82,313.811L234.564,313.811L234.564,327.779L229.632,327.779L229.632,309.599L233.7,309.599L234.564,311.075L237.12,309.599L240.576,309.599L243.924,311.543L247.308,309.599L250.764,309.599L254.94,312.011Z" style="fill:rgb(64,64,64);fill-rule:nonzero;"/>
                <path d="M275.28,323.567L275.28,327.779L264.516,327.779L260.34,325.367L260.34,312.011L264.516,309.599L271.104,309.599L275.28,312.011L275.28,320.615L265.272,320.615L265.272,323.567L275.28,323.567ZM265.272,313.811L265.272,316.907L270.348,316.907L270.348,313.811L265.272,313.811Z" style="fill:rgb(64,64,64);fill-rule:nonzero;"/>
                <path d="M294.252,320.687L294.252,323.819L299.328,323.819L299.328,320.687L294.252,320.687ZM293.496,327.959L289.32,325.547L289.32,319.319L293.496,316.907L299.328,316.907L299.328,313.991L291.12,313.991L291.12,309.779L300.084,309.779L304.26,312.191L304.26,327.959L301.884,327.959L299.328,326.483L296.772,327.959L293.496,327.959Z" style="fill:rgb(64,64,64);fill-rule:nonzero;"/>
                <path d="M325.68,312.011L325.68,327.779L320.748,327.779L320.748,313.811L314.592,313.811L314.592,327.779L309.66,327.779L309.66,309.599L313.728,309.599L314.592,311.075L317.148,309.599L321.504,309.599L325.68,312.011Z" style="fill:rgb(64,64,64);fill-rule:nonzero;"/>
                <path d="M335.256,309.599L339.972,309.599L342.528,311.075L342.528,301.499L347.46,301.499L347.46,327.959L343.392,327.959L342.528,326.483L339.972,327.959L335.256,327.959L331.08,325.547L331.08,312.011L335.256,309.599ZM342.528,323.747L342.528,313.811L336.012,313.811L336.012,323.747L342.528,323.747Z" style="fill:rgb(64,64,64);fill-rule:nonzero;"/>
                <path d="M376.08,320.399L381.12,320.399L381.12,325.547L376.944,327.959L366.756,327.959L362.58,325.547L362.58,304.811L366.756,302.399L376.944,302.399L381.12,304.811L381.12,309.959L376.08,309.959L376.08,306.719L367.62,306.719L367.62,323.639L376.08,323.639L376.08,320.399Z" style="fill:rgb(64,64,64);fill-rule:nonzero;"/>
                <path d="M402.54,325.547L398.364,327.959L390.696,327.959L386.52,325.547L386.52,312.011L390.696,309.599L398.364,309.599L402.54,312.011L402.54,325.547ZM391.452,313.811L391.452,323.747L397.608,323.747L397.608,313.811L391.452,313.811Z" style="fill:rgb(64,64,64);fill-rule:nonzero;"/>
                <path d="M433.248,312.011L433.248,327.779L428.316,327.779L428.316,313.811L423.06,313.811L423.06,327.779L418.128,327.779L418.128,313.811L412.872,313.811L412.872,327.779L407.94,327.779L407.94,309.599L412.008,309.599L412.872,311.075L415.428,309.599L418.884,309.599L422.232,311.543L425.616,309.599L429.072,309.599L433.248,312.011Z" style="fill:rgb(64,64,64);fill-rule:nonzero;"/>
                <path d="M463.956,312.011L463.956,327.779L459.024,327.779L459.024,313.811L453.768,313.811L453.768,327.779L448.836,327.779L448.836,313.811L443.58,313.811L443.58,327.779L438.648,327.779L438.648,309.599L442.716,309.599L443.58,311.075L446.136,309.599L449.592,309.599L452.94,311.543L456.324,309.599L459.78,309.599L463.956,312.011Z" style="fill:rgb(64,64,64);fill-rule:nonzero;"/>
                <path d="M484.296,323.567L484.296,327.779L473.532,327.779L469.356,325.367L469.356,312.011L473.532,309.599L480.12,309.599L484.296,312.011L484.296,320.615L474.288,320.615L474.288,323.567L484.296,323.567ZM474.288,313.811L474.288,316.907L479.364,316.907L479.364,313.811L474.288,313.811Z" style="fill:rgb(64,64,64);fill-rule:nonzero;"/>
                <path d="M500.82,313.991L494.628,313.991L494.628,327.779L489.696,327.779L489.696,309.779L493.764,309.779L494.628,311.255L497.184,309.779L500.82,309.779L500.82,313.991Z" style="fill:rgb(64,64,64);fill-rule:nonzero;"/>
                <path d="M509.352,313.991L509.352,323.567L518.28,323.567L518.28,327.779L508.596,327.779L504.42,325.367L504.42,312.191L508.596,309.779L518.28,309.779L518.28,313.991L509.352,313.991Z" style="fill:rgb(64,64,64);fill-rule:nonzero;"/>
                <path d="M527.892,309.779L527.892,327.779L522.96,327.779L522.96,309.779L527.892,309.779ZM522.78,306.431L522.78,301.499L528.072,301.499L528.072,306.431L522.78,306.431Z" style="fill:rgb(64,64,64);fill-rule:nonzero;"/>
                <path d="M537.504,320.687L537.504,323.819L542.58,323.819L542.58,320.687L537.504,320.687ZM536.748,327.959L532.572,325.547L532.572,319.319L536.748,316.907L542.58,316.907L542.58,313.991L534.372,313.991L534.372,309.779L543.336,309.779L547.512,312.191L547.512,327.959L545.136,327.959L542.58,326.483L540.024,327.959L536.748,327.959Z" style="fill:rgb(64,64,64);fill-rule:nonzero;"/>
                <path d="M557.088,327.779L552.912,325.367L552.912,301.499L557.844,301.499L557.844,323.567L561.444,323.567L561.444,327.779L557.088,327.779Z" style="fill:rgb(64,64,64);fill-rule:nonzero;"/>
                <path d="M593.52,327.779L587.976,327.779L582.576,318.275L579.444,318.275L579.444,327.779L574.404,327.779L574.404,302.579L588.048,302.579L592.224,304.991L592.224,315.863L588.048,318.275L593.52,327.779ZM579.444,306.899L579.444,313.955L587.184,313.955L587.184,306.899L579.444,306.899Z" style="fill:rgb(64,64,64);fill-rule:nonzero;"/>
                <path d="M612.924,323.567L612.924,327.779L602.16,327.779L597.984,325.367L597.984,312.011L602.16,309.599L608.748,309.599L612.924,312.011L612.924,320.615L602.916,320.615L602.916,323.567L612.924,323.567ZM602.916,313.811L602.916,316.907L607.992,316.907L607.992,313.811L602.916,313.811Z" style="fill:rgb(64,64,64);fill-rule:nonzero;"/>
                <path d="M634.344,312.011L634.344,327.779L629.412,327.779L629.412,313.811L623.256,313.811L623.256,327.779L618.324,327.779L618.324,309.599L622.392,309.599L623.256,311.075L625.812,309.599L630.168,309.599L634.344,312.011Z" style="fill:rgb(64,64,64);fill-rule:nonzero;"/>
                <path d="M655.764,325.547L651.588,327.959L643.92,327.959L639.744,325.547L639.744,312.011L643.92,309.599L651.588,309.599L655.764,312.011L655.764,325.547ZM644.676,313.811L644.676,323.747L650.832,323.747L650.832,313.811L644.676,313.811Z" style="fill:rgb(64,64,64);fill-rule:nonzero;"/>
                <path d="M663.936,309.779L668.076,321.587L668.148,321.587L672.324,309.779L677.256,309.779L670.596,327.779L665.664,327.779L659.004,309.779L663.936,309.779Z" style="fill:rgb(64,64,64);fill-rule:nonzero;"/>
                <path d="M684.708,320.687L684.708,323.819L689.784,323.819L689.784,320.687L684.708,320.687ZM683.952,327.959L679.776,325.547L679.776,319.319L683.952,316.907L689.784,316.907L689.784,313.991L681.576,313.991L681.576,309.779L690.54,309.779L694.716,312.191L694.716,327.959L692.34,327.959L689.784,326.483L687.228,327.959L683.952,327.959Z" style="fill:rgb(64,64,64);fill-rule:nonzero;"/>
                <path d="M698.676,313.991L698.676,309.779L701.988,309.779L701.988,306.755L706.92,303.911L706.92,309.779L710.88,309.779L710.88,313.991L706.92,313.991L706.92,323.567L710.88,323.567L710.88,327.779L706.164,327.779L701.988,325.367L701.988,313.991L698.676,313.991Z" style="fill:rgb(64,64,64);fill-rule:nonzero;"/>
                <path d="M720.492,309.779L720.492,327.779L715.56,327.779L715.56,309.779L720.492,309.779ZM715.38,306.431L715.38,301.499L720.672,301.499L720.672,306.431L715.38,306.431Z" style="fill:rgb(64,64,64);fill-rule:nonzero;"/>
                <path d="M741.912,325.547L737.736,327.959L730.068,327.959L725.892,325.547L725.892,312.011L730.068,309.599L737.736,309.599L741.912,312.011L741.912,325.547ZM730.824,313.811L730.824,323.747L736.98,323.747L736.98,313.811L730.824,313.811Z" style="fill:rgb(64,64,64);fill-rule:nonzero;"/>
                <path d="M763.332,312.011L763.332,327.779L758.4,327.779L758.4,313.811L752.244,313.811L752.244,327.779L747.312,327.779L747.312,309.599L751.38,309.599L752.244,311.075L754.8,309.599L759.156,309.599L763.332,312.011Z" style="fill:rgb(64,64,64);fill-rule:nonzero;"/>
                <path d="M782.988,318.923L782.988,325.367L778.812,327.779L768.732,327.779L768.732,323.567L778.056,323.567L778.056,320.795L772.908,320.795L768.732,318.383L768.732,312.191L772.908,309.779L782.628,309.779L782.628,313.991L773.664,313.991L773.664,316.511L778.812,316.511L782.988,318.923Z" style="fill:rgb(64,64,64);fill-rule:nonzero;"/>
            </g>
            <g id="Riva-Renovations" serif:id="Riva Renovations" transform="matrix(1,0,0,1,-89.0468,-11.3529)">
                <g id="enovations" transform="matrix(1.28845,0,0,1.28845,-23.6581,176.915)">
                    <g transform="matrix(1,0,0,1,-17.8002,7.10543e-15)">
                        <path d="M740.871,54.455L740.871,36.343L749.071,32.055L765.263,32.055L773.463,36.343L773.463,44.855L763.727,44.855L763.727,40.511L750.607,40.511L750.607,50.423L765.263,50.423L772.687,54.711L772.687,73.207L765.263,77.495L748.431,77.495L741.007,73.207L741.007,64.695L750.743,64.695L750.743,69.039L762.951,69.039L762.951,59.519L749.071,59.519L740.871,54.455Z" style="fill:rgb(64,64,64);fill-rule:nonzero;"/>
                    </g>
                    <g transform="matrix(1,0,0,1,-14.5638,0)">
                        <path d="M703.055,50.511L702.927,77.175L693.191,77.175L693.191,32.375L703.127,32.375L721.031,60.591L721.031,32.375L731.543,32.375L731.543,77.175L720.831,77.175L703.055,50.511Z" style="fill:rgb(64,64,64);fill-rule:nonzero;"/>
                    </g>
                    <g transform="matrix(1,0,0,1,171.137,0.32)">
                        <path d="M500.623,72.431L493.199,77.495L473.167,77.495L465.743,72.431L465.743,37.119L473.167,32.055L493.199,32.055L500.623,37.119L500.623,72.431ZM477.9,40.511L475.479,42.601L475.479,67.087L477.9,69.039L488.287,69.039L490.887,67.087L490.887,42.601L488.287,40.511L477.9,40.511Z" style="fill:rgb(64,64,64);fill-rule:nonzero;"/>
                    </g>
                    <g transform="matrix(1,0,0,1,-9.70922,0)">
                        <rect x="627.591" y="32.375" width="9.736" height="44.8" style="fill:rgb(64,64,64);fill-rule:nonzero;"/>
                    </g>
                    <g transform="matrix(1,0,0,1,-9.70922,0)">
                        <path d="M610.007,40.831L610.007,77.175L599.495,77.175L599.495,40.831L588.175,40.831L588.175,32.375L621.327,32.375L621.327,40.831L610.007,40.831Z" style="fill:rgb(64,64,64);fill-rule:nonzero;"/>
                    </g>
                    <g transform="matrix(1,0,0,1,-7.31489,0)">
                        <path d="M573.591,32.375L589.591,77.175L579.983,77.175L576.591,67.511L559.823,67.511L556.431,77.175L546.823,77.175L562.823,32.375L573.591,32.375ZM569.736,47.761L566.722,47.761L562.511,59.055L573.839,59.055L569.736,47.761Z" style="fill:rgb(64,64,64);fill-rule:nonzero;"/>
                    </g>
                    <g transform="matrix(1,0,0,1,-4.07848,0)">
                        <path d="M550.432,32.375L534.432,77.175L521.471,77.175L505.471,32.375L516.111,32.375L527.033,63.272L529.103,63.272L539.791,32.375L550.432,32.375Z" style="fill:rgb(64,64,64);fill-rule:nonzero;"/>
                    </g>
                    <g transform="matrix(1,0,0,1,-3.23641,0.776128)">
                        <path d="M500.623,72.431L493.199,77.495L473.167,77.495L465.743,72.431L465.743,37.119L473.167,32.055L493.199,32.055L500.623,37.119L500.623,72.431ZM477.9,40.511L475.479,42.601L475.479,67.087L477.9,69.039L488.287,69.039L490.887,67.087L490.887,42.601L488.287,40.511L477.9,40.511Z" style="fill:rgb(64,64,64);fill-rule:nonzero;"/>
                    </g>
                    <g transform="matrix(1,0,0,1,-1.6182,0)">
                        <path d="M427.151,49.735L427.023,77.175L417.287,77.175L417.287,32.375L428,32.375L445.775,60.591L445.903,32.375L455.639,32.375L455.639,77.175L444.927,77.175L427.151,49.735Z" style="fill:rgb(64,64,64);fill-rule:nonzero;"/>
                    </g>
                    <g transform="matrix(1,0,0,1,-0.809102,0)">
                        <path d="M391.887,57.975L391.887,68.719L409.743,68.719L409.743,77.175L382.151,77.175L382.151,32.375L409.743,32.375L409.743,40.831L391.887,40.831L391.887,49.519L405.903,49.519L405.903,57.975L391.887,57.975Z" style="fill:rgb(64,64,64);fill-rule:nonzero;"/>
                    </g>
                </g>
                <g transform="matrix(1.17268,0,0,1.17268,158.448,-34.7543)">
                    <path d="M260.388,270.763L242.727,270.763L220.656,245.419L215.181,245.419L215.181,270.763L199.823,270.763L199.823,203.563L236.207,203.563L247.343,209.995L247.343,244.741L238.125,245.419L260.388,270.763ZM215.181,215.083L215.181,233.899L233.903,233.899L233.903,215.083L215.181,215.083Z" style="fill:rgb(220,37,37);fill-rule:nonzero;"/>
                </g>
                <g id="riva" transform="matrix(1.28845,0,0,1.28845,-79.3732,177.327)">
                    <g transform="matrix(1,0,0,1,-236.494,-0.32)">
                        <path d="M573.591,32.375L589.591,77.175L579.983,77.175L576.591,67.511L559.823,67.511L556.431,77.175L546.823,77.175L562.823,32.375L573.591,32.375ZM569.736,47.761L566.722,47.761L562.511,59.055L573.839,59.055L569.736,47.761Z" style="fill:rgb(64,64,64);fill-rule:nonzero;"/>
                    </g>
                    <g transform="matrix(1,0,0,1,-231.948,5.55112e-17)">
                        <path d="M550.432,32.375L534.432,77.175L521.471,77.175L505.471,32.375L516.111,32.375L527.033,63.272L529.103,63.272L539.791,32.375L550.432,32.375Z" style="fill:rgb(64,64,64);fill-rule:nonzero;"/>
                    </g>
                    <g transform="matrix(1,0,0,1,-3.88064,0)">
                        <rect x="262.735" y="32.375" width="9.736" height="44.8" style="fill:rgb(64,64,64);fill-rule:nonzero;"/>
                    </g>
                </g>
                <g transform="matrix(1.17268,0,0,1.17268,-53.3765,-34.7543)">
                    <path d="M260.388,270.763L242.727,270.763L220.656,245.419L215.181,245.419L215.181,270.763L199.823,270.763L199.823,203.563L236.207,203.563L247.343,209.995L247.343,244.741L238.125,245.419L260.388,270.763ZM215.181,215.083L215.181,233.899L233.903,233.899L233.903,215.083L215.181,215.083Z" style="fill:rgb(220,37,37);fill-rule:nonzero;"/>
                </g>
            </g>
        </g>
    </g>
    <defs>
        <linearGradient id="_Linear1" x1="0" y1="0" x2="1" y2="0" gradientUnits="userSpaceOnUse" gradientTransform="matrix(102.276,0,0,128.474,213.197,167.123)"><stop offset="0" style="stop-color:white;stop-opacity:1"/><stop offset="1" style="stop-color:white;stop-opacity:0"/></linearGradient>
    </defs>
</svg>
