<?xml version="1.0" encoding="UTF-8" standalone="no"?>
<!DOCTYPE svg PUBLIC "-//W3C//DTD SVG 1.1//EN" "http://www.w3.org/Graphics/SVG/1.1/DTD/svg11.dtd">
<svg width="100%" height="100%" viewBox="0 0 822 269" version="1.1" xmlns="http://www.w3.org/2000/svg" xmlns:xlink="http://www.w3.org/1999/xlink" xml:space="preserve" xmlns:serif="http://www.serif.com/" style="fill-rule:evenodd;clip-rule:evenodd;stroke-miterlimit:1.5;">
    <g transform="matrix(1,0,0,1,-64.4653,-118.465)">
        <g id="version-2" serif:id="version 2">
            <g transform="matrix(1,0,0,1,0,80)">
                <g transform="matrix(0.90622,0,0,1,624.19,-100)">
                    <path d="M98,161L98,384L263.523,384L263.523,161.32" style="fill:none;stroke:rgb(204,204,204);stroke-width:26.2px;"/>
                </g>
                <g transform="matrix(0.909914,0,0,1,414.828,-100)">
                    <path d="M98,161L98,384L262.851,384L262.851,161.32" style="fill:none;stroke:rgb(204,204,204);stroke-width:26.15px;"/>
                </g>
                <g transform="matrix(0.909502,0,0,1,206.869,-100)">
                    <path d="M98,161L98,384L262.925,384L262.925,161.32" style="fill:none;stroke:rgb(204,204,204);stroke-width:26.16px;"/>
                </g>
                <g transform="matrix(0.909091,0,0,1,-2.09091,-100)">
                    <path d="M98,161L98,384L263,384L263,161.32" style="fill:none;stroke:rgb(204,204,204);stroke-width:26.16px;"/>
                </g>
                <g transform="matrix(1.02976e-16,1.68173,-6.24282,3.82262e-16,1518.3,-298.539)">
                    <rect x="213.197" y="102.886" width="102.276" height="128.474" style="fill:url(#_Linear1);"/>
                </g>
            </g>
            <g id="Sub-Heading" serif:id="Sub Heading" transform="matrix(1,0,0,1,-6.66585,-19)">
                <text x="179.412px" y="327.779px" style="font-family:'Quantico-Bold', 'Quantico';font-weight:700;font-size:36px;fill:rgb(64,64,64);">Home and Commercial Renovations</text>
            </g>
            <g id="Riva-Renovations" serif:id="Riva Renovations" transform="matrix(1,0,0,1,-89.0468,-3.35285)">
                <g transform="matrix(1,0,0,1,-38,0)">
                    <path d="M976.271,247.147L976.271,264.331L965.135,270.763L938.255,270.763L938.255,259.531L963.119,259.531L963.119,252.139L949.391,252.139L938.255,245.707L938.255,229.195L949.391,222.763L975.311,222.763L975.311,233.995L951.407,233.995L951.407,240.715L965.135,240.715L976.271,247.147Z" style="fill:rgb(64,64,64);fill-rule:nonzero;"/>
                </g>
                <g transform="matrix(1,0,0,1,-35,0)">
                    <path d="M923.855,228.715L923.855,270.763L910.703,270.763L910.703,233.515L894.287,233.515L894.287,270.763L881.135,270.763L881.135,222.283L891.983,222.283L894.287,226.219L901.103,222.283L912.719,222.283L923.855,228.715Z" style="fill:rgb(64,64,64);fill-rule:nonzero;"/>
                </g>
                <g transform="matrix(1,0,0,1,-31,0)">
                    <path d="M866.735,264.811L855.599,271.243L835.151,271.243L824.015,264.811L824.015,228.715L835.151,222.283L855.599,222.283L866.735,228.715L866.735,264.811ZM837.167,233.515L837.167,260.011L853.583,260.011L853.583,233.515L837.167,233.515Z" style="fill:rgb(64,64,64);fill-rule:nonzero;"/>
                </g>
                <g transform="matrix(1,0,0,1,506,0)">
                    <path d="M275.855,222.763L275.855,270.763L262.703,270.763L262.703,222.763L275.855,222.763ZM260.223,218.835L268.223,203.683L278.335,218.835L260.223,218.835Z" style="fill:rgb(64,64,64);fill-rule:nonzero;"/>
                </g>
                <g transform="matrix(1,0,0,1,-34,0)">
                    <path d="M751.439,234.995L751.439,223.763L760.271,223.763L760.271,214.353L773.423,214.353L773.423,223.763L789.983,223.763L789.983,234.995L773.423,234.995L773.423,259.531L785.983,259.531L785.983,270.763L771.407,270.763L760.271,264.331L760.271,234.995L751.439,234.995Z" style="fill:rgb(64,64,64);fill-rule:nonzero;"/>
                </g>
                <g transform="matrix(1,0,0,1,330,0)">
                    <path d="M353.039,251.851L353.039,260.203L366.575,260.203L366.575,251.851L353.039,251.851ZM351.023,271.243L339.887,270.811L339.887,248.203L351.023,241.771L366.575,241.771L366.575,233.995L344.687,233.953L348.687,222.763L368.591,222.763L379.727,229.195L379.727,271.243L373.391,271.243L366.575,267.307L363.759,271.243L351.023,271.243Z" style="fill:rgb(64,64,64);fill-rule:nonzero;"/>
                </g>
                <g transform="matrix(1,0,0,1,333,0)">
                    <path d="M297.647,222.763L308.687,254.251L308.879,254.251L320.015,222.763L336.047,222.728L333.047,233.398L328.77,233.353L315.407,270.763L302.255,270.763L284.495,222.763L297.647,222.763Z" style="fill:rgb(64,64,64);fill-rule:nonzero;"/>
                </g>
                <g transform="matrix(1,0,0,1,-24,0)">
                    <path d="M637.007,264.811L625.871,271.243L605.423,271.243L594.287,264.811L594.287,228.715L605.423,222.283L625.871,222.283L637.007,228.715L637.007,264.811ZM607.439,233.515L607.439,260.011L623.855,260.011L623.855,233.515L607.439,233.515Z" style="fill:rgb(64,64,64);fill-rule:nonzero;"/>
                </g>
                <g transform="matrix(1,0,0,1,-17,0)">
                    <path d="M579.887,228.715L579.887,270.763L566.735,270.763L566.735,233.515L550.319,233.515L550.319,270.763L537.167,270.763L537.167,222.283L548.015,222.283L550.319,226.219L557.135,222.283L568.751,222.283L579.887,228.715Z" style="fill:rgb(64,64,64);fill-rule:nonzero;"/>
                </g>
                <g transform="matrix(1,0,0,1,-13,0)">
                    <path d="M522.767,259.531L522.767,270.763L494.063,270.763L482.927,270.331L482.927,228.715L494.063,222.283L511.631,222.283L522.767,228.715L522.767,251.659L496.079,251.659L496.079,259.531L522.767,259.531ZM496.079,233.515L496.079,241.771L509.615,241.771L509.615,233.515L496.079,233.515Z" style="fill:rgb(64,64,64);fill-rule:nonzero;"/>
                </g>
                <g transform="matrix(1.17268,0,0,1.17268,164.448,-39.7543)">
                    <path d="M260.388,270.763L242.727,270.763L220.656,245.419L215.181,245.419L215.181,270.763L199.823,270.763L199.823,203.563L236.207,203.563L247.343,209.995L247.343,244.741L238.125,245.419L260.388,270.763ZM215.181,215.083L215.181,233.899L233.903,233.899L233.903,215.083L215.181,215.083Z" style="fill:rgb(220,37,37);fill-rule:nonzero;"/>
                </g>
                <g id="Layer1">
                </g>
                <g transform="matrix(1,0,0,1,-6,0)">
                    <path d="M353.039,251.851L353.039,260.203L366.575,260.203L366.575,251.851L353.039,251.851ZM351.023,271.243L339.887,270.811L339.887,248.203L351.023,241.771L366.575,241.771L366.575,233.995L344.687,233.953L348.687,222.763L368.591,222.763L379.727,229.195L379.727,271.243L373.391,271.243L366.575,267.307L363.759,271.243L351.023,271.243Z" style="fill:rgb(64,64,64);fill-rule:nonzero;"/>
                </g>
                <g transform="matrix(1,0,0,1,-1,0)">
                    <path d="M297.647,222.763L308.687,254.251L308.879,254.251L320.015,222.763L336.047,222.728L333.047,233.398L328.77,233.353L315.407,270.763L302.255,270.763L284.495,222.763L297.647,222.763Z" style="fill:rgb(64,64,64);fill-rule:nonzero;"/>
                </g>
                <g transform="matrix(1,0,0,1,1,0)">
                    <path d="M275.855,222.763L275.855,270.763L262.703,270.763L262.703,222.763L275.855,222.763ZM260.223,218.835L268.223,203.683L278.335,218.835L260.223,218.835Z" style="fill:rgb(64,64,64);fill-rule:nonzero;"/>
                </g>
                <g transform="matrix(1.17268,0,0,1.17268,-42.3765,-39.7543)">
                    <path d="M260.388,270.763L242.727,270.763L220.656,245.419L215.181,245.419L215.181,270.763L199.823,270.763L199.823,203.563L236.207,203.563L247.343,209.995L247.343,244.741L238.125,245.419L260.388,270.763ZM215.181,215.083L215.181,233.899L233.903,233.899L233.903,215.083L215.181,215.083Z" style="fill:rgb(220,37,37);fill-rule:nonzero;"/>
                </g>
            </g>
        </g>
    </g>
    <defs>
        <linearGradient id="_Linear1" x1="0" y1="0" x2="1" y2="0" gradientUnits="userSpaceOnUse" gradientTransform="matrix(102.276,0,0,128.474,213.197,167.123)"><stop offset="0" style="stop-color:white;stop-opacity:1"/><stop offset="1" style="stop-color:white;stop-opacity:0"/></linearGradient>
    </defs>
</svg>
